<svg id="SvgjsSvg1001" width="288" height="288" xmlns="http://www.w3.org/2000/svg" version="1.1" xmlns:xlink="http://www.w3.org/1999/xlink" xmlns:svgjs="http://svgjs.com/svgjs"><defs id="SvgjsDefs1002"></defs><g id="SvgjsG1008" transform="matrix(0.9167,0,0,0.9167,11.995200000000011,11.995200000000011)"><svg xmlns="http://www.w3.org/2000/svg" enable-background="new 0 0 512 512" viewBox="0 0 512 512" width="288" height="288"><path fill="#ffa000" d="M160,0C71.634,0,0,71.634,0,160s71.634,160,160,160c2.831,0.005,5.548-1.115,7.552-3.115
	l149.333-149.333c1.999-2.004,3.12-4.721,3.115-7.552C319.906,71.673,248.327,0.094,160,0z" class="colorffa000 svgShape"></path><path fill="#ffc107" d="M330.667,149.333c-100.148,0-181.333,81.186-181.333,181.333S230.519,512,330.667,512
	S512,430.814,512,330.667C511.882,230.568,430.766,149.451,330.667,149.333z" class="colorffc107 svgShape"></path><path fill="#ff385c" d="M160 469.333c-44.065-2.31-81.304-33.454-91.371-76.416L91.2 404.203c5.272 2.633 11.681.494 14.315-4.779 2.633-5.272.494-11.681-4.779-14.315l-42.667-21.333c-.299-.149-.64-.128-.96-.256-1.36-.519-2.812-.758-4.267-.704-.341-.018-.683-.018-1.024 0-.333.097-.66.211-.981.341-2.732.643-5.101 2.337-6.592 4.715-.171.277-.448.469-.597.768l-21.333 42.667c-2.634 5.269-.498 11.676 4.771 14.311.003.001.005.003.008.004 1.528.738 3.211 1.097 4.907 1.045 4.044.008 7.745-2.272 9.557-5.888l8.277-16.555c14.117 49.638 58.594 84.538 110.165 86.443l0 0c5.891 0 10.667-4.776 10.667-10.667C170.667 474.109 165.891 469.333 160 469.333zM484.779 86.421c-5.269-2.634-11.676-.498-14.311 4.771-.001.003-.003.005-.004.008l-8.277 16.555C448.06 58.118 403.573 23.226 352 21.333l0 0c-5.891 0-10.667 4.776-10.667 10.667S346.109 42.667 352 42.667c44.044 2.314 81.268 33.436 91.349 76.373l-22.571-11.285c-5.272-2.633-11.681-.494-14.315 4.779-2.633 5.272-.494 11.681 4.779 14.315l42.667 21.333c.149 0 .299 0 .448 0 1.337.69 2.807 1.083 4.309 1.152 1.943.018 3.851-.514 5.504-1.536l.192-.171c1.409-.933 2.573-2.191 3.392-3.669.128-.213.363-.299.469-.512l21.333-42.667c2.653-5.26.54-11.674-4.719-14.328C484.818 86.441 484.798 86.431 484.779 86.421z" class="color455a64 svgShape"></path><path fill="#fafafa" d="M341.333,320.747v-64c24,3.051,42.667,16.149,42.667,31.317c0,5.891,4.776,10.667,10.667,10.667
	c5.891,0,10.667-4.776,10.667-10.667c0-27.307-27.413-49.067-64-52.587V224c0-5.891-4.776-10.667-10.667-10.667
	c-5.891,0-10.667,4.776-10.667,10.667v11.413c-36.587,3.627-64,25.28-64,52.587c0,27.307,27.413,49.067,64,52.587v64
	c-24-3.051-42.667-16.149-42.667-31.317c0-5.891-4.776-10.667-10.667-10.667c-5.891,0-10.667,4.776-10.667,10.667
	c0,27.307,27.413,49.067,64,52.587v11.477c0,5.891,4.776,10.667,10.667,10.667c5.891,0,10.667-4.776,10.667-10.667V425.92
	c36.587-3.627,64-25.28,64-52.587S377.92,324.267,341.333,320.747z M277.333,288c0-15.168,18.667-28.267,42.667-31.317v62.656
	C296,316.267,277.333,303.168,277.333,288z M341.333,404.651v-62.635c24,3.051,42.667,16.149,42.667,31.317
	S365.333,401.6,341.333,404.651z" class="colorfafafa svgShape"></path><path fill="#eceff1" d="M160,256c-41.856,0-74.667-23.467-74.667-53.333v-85.333C85.333,87.467,118.144,64,160,64
		s74.667,23.467,74.667,53.333c0,5.891-4.776,10.667-10.667,10.667c-5.891,0-10.667-4.776-10.667-10.667
		c0-17.344-24.427-32-53.333-32s-53.333,14.656-53.333,32v85.333c0,17.344,24.427,32,53.333,32c5.891,0,10.667,4.776,10.667,10.667
		C170.667,251.224,165.891,256,160,256z" class="coloreceff1 svgShape"></path><path fill="#eceff1" d="M181.333 149.333H74.667c-5.891 0-10.667-4.776-10.667-10.667S68.776 128 74.667 128h106.667c5.891 0 10.667 4.776 10.667 10.667S187.224 149.333 181.333 149.333zM181.333 192H74.667C68.776 192 64 187.224 64 181.333c0-5.891 4.776-10.667 10.667-10.667h106.667c5.891 0 10.667 4.776 10.667 10.667C192 187.224 187.224 192 181.333 192z" class="coloreceff1 svgShape"></path></svg></g></svg>