<svg xmlns="http://www.w3.org/2000/svg"
  xmlns:xlink="http://www.w3.org/1999/xlink"
  viewBox="0 0 100 100" width="200" height="200" preserveAspectRatio="xMidYMid meet">

  <style>
  
    #snowFlake {
      fill: none;
      stroke: white;
      stroke-width: 0.6;
    }

    #snowFlake1 {
      -webkit-animation: snow 4s linear infinite;
      animation: snow 4s linear infinite;
    }

    #snowFlake2 {
      -webkit-animation: snow 3s linear infinite 0.8s;
      animation: snow 3s linear infinite 0.8s;
    }

    #snowFlake3 {
      -webkit-animation: snow 5s linear infinite 0.5s;
      animation: snow 5s linear infinite 0.5s;
    }

    #snowFlake4 {
      -webkit-animation: snow 6s linear infinite 1s;
      animation: snow 6s linear infinite 1s;
    }

    #snowFlake5 {
      -webkit-animation: snow 4s linear infinite 0.6s;
      animation: snow 4s linear infinite 0.6s;
    }

    @-webkit-keyframes snow {
      0% {
        -webkit-transform: translate(5px, 0px);
        opacity: 1;
      }
      25% {
        -webkit-transform: translate(0px, 10px);
        opacity: 1;
      }
      50% {
        -webkit-transform: translate(7px, 20px);
        opacity: 1;
      }
      75% {
        -webkit-transform: translate(0px, 30px);
        opacity: 0.75;
      }
      100% {
        -webkit-transform: translate(10px, 40px);
        opacity: 0.5;
      }
    }
    @keyframes snow {
      0% {
        -ms-transform: translate(5px, 0px);
        transform: translate(5px, 0px);
        opacity: 1;
      }
      25% {
        -ms-transform: translate(0px, 10px);
        transform: translate(0px, 10px);
        opacity: 1;
      }
      50% {
        -ms-transform: translate(7px, 20px);
        transform: translate(7px, 20px);
        opacity: 1;
      }
      75% {
        -ms-transform: translate(0px, 30px);
        transform: translate(0px, 30px);
        opacity: 0.75;
      }
      100% {
        -ms-transform: translate(10px, 40px);
        transform: translate(10px, 40px);
        opacity: 0.5;
      }
    }

  </style>

  <defs>
    <linearGradient id="gradWhite" x1="40%" y1="50%" x2="90%" y2="90%">
      <stop offset="0%" style="stop-color: white; stop-opacity: 1" />
      <stop offset="100%" style="stop-color: darkgray; stop-opacity: 1" />
    </linearGradient>     
  </defs>

  <!-- White Cloud -->
  <symbol id="whiteCloud">
    <path fill="url(#gradWhite)" d="M11,47 Q13,37 21,42 Q31,30 41,38 A28,21 -25 1,1 35,75 Q23,85 19,73 A12,12 0 0,1 11,47Z" />
  </symbol>

  <!-- Snow Flake -->
  <symbol id="snowFlake">
    <path d="M5,0 L5,10 M0,5 L10,5 M1.5,1.5 L8.5,8.5 M8.5,1.5 L1.5,8.5" />
    <path d="M3.5,0.25 L5,2 L6.5,0.25 M3.5,9.75 L5,8 L6.5,9.75" />
    <path d="M0.25,3.5 L2,5 L0.25,6.5 M9.75,3.5 L8,5 L9.75,6.5" />
    <path d="M0.75,2.90 L2.85,2.85 L2.90,0.75 M7.25,9.35 L7.15,7.15 L9.35,7.25" />
    <path d="M0.75,7.25 L2.85,7.15 L2.90,9.35 M7.15,0.75 L7.25,2.85 L9.35,2.90" />
  </symbol>

  <use id="snowFlake1" xlink:href="#snowFlake" x="20" y="55"/>
  <use id="snowFlake2" xlink:href="#snowFlake" x="35" y="65"/>
  <use id="snowFlake3" xlink:href="#snowFlake" x="45" y="60"/>
  <use id="snowFlake4" xlink:href="#snowFlake" x="50" y="65"/>
  <use id="snowFlake5" xlink:href="#snowFlake" x="63" y="65"/>
  <use xlink:href="#whiteCloud" x="10" y="-15"/>

</svg>
